<?xml version="1.0" encoding="utf-8" standalone="no"?>
<!DOCTYPE svg PUBLIC "-//W3C//DTD SVG 1.1//EN"
  "http://www.w3.org/Graphics/SVG/1.1/DTD/svg11.dtd">
<svg xmlns:xlink="http://www.w3.org/1999/xlink" width="460.8pt" height="345.6pt" viewBox="0 0 460.8 345.6" xmlns="http://www.w3.org/2000/svg" version="1.1">
 <metadata>
  <rdf:RDF xmlns:dc="http://purl.org/dc/elements/1.1/" xmlns:cc="http://creativecommons.org/ns#" xmlns:rdf="http://www.w3.org/1999/02/22-rdf-syntax-ns#">
   <cc:Work>
    <dc:type rdf:resource="http://purl.org/dc/dcmitype/StillImage"/>
    <dc:date>2026-03-17T18:37:59.184371</dc:date>
    <dc:format>image/svg+xml</dc:format>
    <dc:creator>
     <cc:Agent>
      <dc:title>Matplotlib v3.10.8, https://matplotlib.org/</dc:title>
     </cc:Agent>
    </dc:creator>
   </cc:Work>
  </rdf:RDF>
 </metadata>
 <defs>
  <style type="text/css">*{stroke-linejoin: round; stroke-linecap: butt}</style>
 </defs>
 <g id="figure_1">
  <g id="patch_1">
   <path d="M 0 345.6 
L 460.8 345.6 
L 460.8 0 
L 0 0 
z
" style="fill: #ffffff"/>
  </g>
  <g id="axes_1">
   <g id="patch_2">
    <path d="M 57.6 307.584 
L 414.72 307.584 
L 414.72 41.472 
L 57.6 41.472 
z
" style="fill: #ffffff"/>
   </g>
   <g id="matplotlib.axis_1">
    <g id="xtick_1">
     <g id="line2d_1">
      <defs>
       <path id="m5b31fbc2a3" d="M 0 0 
L 0 3.5 
" style="stroke: #000000; stroke-width: 0.8"/>
      </defs>
      <g>
       <use xlink:href="#m5b31fbc2a3" x="73.832727" y="307.584" style="stroke: #000000; stroke-width: 0.8"/>
      </g>
     </g>
     <g id="text_1">
      <!-- 0 -->
      <g transform="translate(70.651477 322.182437) scale(0.1 -0.1)">
       <defs>
        <path id="DejaVuSans-30" d="M 2034 4250 
Q 1547 4250 1301 3770 
Q 1056 3291 1056 2328 
Q 1056 1369 1301 889 
Q 1547 409 2034 409 
Q 2525 409 2770 889 
Q 3016 1369 3016 2328 
Q 3016 3291 2770 3770 
Q 2525 4250 2034 4250 
z
M 2034 4750 
Q 2819 4750 3233 4129 
Q 3647 3509 3647 2328 
Q 3647 1150 3233 529 
Q 2819 -91 2034 -91 
Q 1250 -91 836 529 
Q 422 1150 422 2328 
Q 422 3509 836 4129 
Q 1250 4750 2034 4750 
z
" transform="scale(0.015625)"/>
       </defs>
       <use xlink:href="#DejaVuSans-30"/>
      </g>
     </g>
    </g>
    <g id="xtick_2">
     <g id="line2d_2">
      <g>
       <use xlink:href="#m5b31fbc2a3" x="117.794074" y="307.584" style="stroke: #000000; stroke-width: 0.8"/>
      </g>
     </g>
     <g id="text_2">
      <!-- 1000 -->
      <g transform="translate(105.069074 322.182437) scale(0.1 -0.1)">
       <defs>
        <path id="DejaVuSans-31" d="M 794 531 
L 1825 531 
L 1825 4091 
L 703 3866 
L 703 4441 
L 1819 4666 
L 2450 4666 
L 2450 531 
L 3481 531 
L 3481 0 
L 794 0 
L 794 531 
z
" transform="scale(0.015625)"/>
       </defs>
       <use xlink:href="#DejaVuSans-31"/>
       <use xlink:href="#DejaVuSans-30" transform="translate(63.623047 0)"/>
       <use xlink:href="#DejaVuSans-30" transform="translate(127.246094 0)"/>
       <use xlink:href="#DejaVuSans-30" transform="translate(190.869141 0)"/>
      </g>
     </g>
    </g>
    <g id="xtick_3">
     <g id="line2d_3">
      <g>
       <use xlink:href="#m5b31fbc2a3" x="161.755421" y="307.584" style="stroke: #000000; stroke-width: 0.8"/>
      </g>
     </g>
     <g id="text_3">
      <!-- 2000 -->
      <g transform="translate(149.030421 322.182437) scale(0.1 -0.1)">
       <defs>
        <path id="DejaVuSans-32" d="M 1228 531 
L 3431 531 
L 3431 0 
L 469 0 
L 469 531 
Q 828 903 1448 1529 
Q 2069 2156 2228 2338 
Q 2531 2678 2651 2914 
Q 2772 3150 2772 3378 
Q 2772 3750 2511 3984 
Q 2250 4219 1831 4219 
Q 1534 4219 1204 4116 
Q 875 4013 500 3803 
L 500 4441 
Q 881 4594 1212 4672 
Q 1544 4750 1819 4750 
Q 2544 4750 2975 4387 
Q 3406 4025 3406 3419 
Q 3406 3131 3298 2873 
Q 3191 2616 2906 2266 
Q 2828 2175 2409 1742 
Q 1991 1309 1228 531 
z
" transform="scale(0.015625)"/>
       </defs>
       <use xlink:href="#DejaVuSans-32"/>
       <use xlink:href="#DejaVuSans-30" transform="translate(63.623047 0)"/>
       <use xlink:href="#DejaVuSans-30" transform="translate(127.246094 0)"/>
       <use xlink:href="#DejaVuSans-30" transform="translate(190.869141 0)"/>
      </g>
     </g>
    </g>
    <g id="xtick_4">
     <g id="line2d_4">
      <g>
       <use xlink:href="#m5b31fbc2a3" x="205.716767" y="307.584" style="stroke: #000000; stroke-width: 0.8"/>
      </g>
     </g>
     <g id="text_4">
      <!-- 3000 -->
      <g transform="translate(192.991767 322.182437) scale(0.1 -0.1)">
       <defs>
        <path id="DejaVuSans-33" d="M 2597 2516 
Q 3050 2419 3304 2112 
Q 3559 1806 3559 1356 
Q 3559 666 3084 287 
Q 2609 -91 1734 -91 
Q 1441 -91 1130 -33 
Q 819 25 488 141 
L 488 750 
Q 750 597 1062 519 
Q 1375 441 1716 441 
Q 2309 441 2620 675 
Q 2931 909 2931 1356 
Q 2931 1769 2642 2001 
Q 2353 2234 1838 2234 
L 1294 2234 
L 1294 2753 
L 1863 2753 
Q 2328 2753 2575 2939 
Q 2822 3125 2822 3475 
Q 2822 3834 2567 4026 
Q 2313 4219 1838 4219 
Q 1578 4219 1281 4162 
Q 984 4106 628 3988 
L 628 4550 
Q 988 4650 1302 4700 
Q 1616 4750 1894 4750 
Q 2613 4750 3031 4423 
Q 3450 4097 3450 3541 
Q 3450 3153 3228 2886 
Q 3006 2619 2597 2516 
z
" transform="scale(0.015625)"/>
       </defs>
       <use xlink:href="#DejaVuSans-33"/>
       <use xlink:href="#DejaVuSans-30" transform="translate(63.623047 0)"/>
       <use xlink:href="#DejaVuSans-30" transform="translate(127.246094 0)"/>
       <use xlink:href="#DejaVuSans-30" transform="translate(190.869141 0)"/>
      </g>
     </g>
    </g>
    <g id="xtick_5">
     <g id="line2d_5">
      <g>
       <use xlink:href="#m5b31fbc2a3" x="249.678114" y="307.584" style="stroke: #000000; stroke-width: 0.8"/>
      </g>
     </g>
     <g id="text_5">
      <!-- 4000 -->
      <g transform="translate(236.953114 322.182437) scale(0.1 -0.1)">
       <defs>
        <path id="DejaVuSans-34" d="M 2419 4116 
L 825 1625 
L 2419 1625 
L 2419 4116 
z
M 2253 4666 
L 3047 4666 
L 3047 1625 
L 3713 1625 
L 3713 1100 
L 3047 1100 
L 3047 0 
L 2419 0 
L 2419 1100 
L 313 1100 
L 313 1709 
L 2253 4666 
z
" transform="scale(0.015625)"/>
       </defs>
       <use xlink:href="#DejaVuSans-34"/>
       <use xlink:href="#DejaVuSans-30" transform="translate(63.623047 0)"/>
       <use xlink:href="#DejaVuSans-30" transform="translate(127.246094 0)"/>
       <use xlink:href="#DejaVuSans-30" transform="translate(190.869141 0)"/>
      </g>
     </g>
    </g>
    <g id="xtick_6">
     <g id="line2d_6">
      <g>
       <use xlink:href="#m5b31fbc2a3" x="293.639461" y="307.584" style="stroke: #000000; stroke-width: 0.8"/>
      </g>
     </g>
     <g id="text_6">
      <!-- 5000 -->
      <g transform="translate(280.914461 322.182437) scale(0.1 -0.1)">
       <defs>
        <path id="DejaVuSans-35" d="M 691 4666 
L 3169 4666 
L 3169 4134 
L 1269 4134 
L 1269 2991 
Q 1406 3038 1543 3061 
Q 1681 3084 1819 3084 
Q 2600 3084 3056 2656 
Q 3513 2228 3513 1497 
Q 3513 744 3044 326 
Q 2575 -91 1722 -91 
Q 1428 -91 1123 -41 
Q 819 9 494 109 
L 494 744 
Q 775 591 1075 516 
Q 1375 441 1709 441 
Q 2250 441 2565 725 
Q 2881 1009 2881 1497 
Q 2881 1984 2565 2268 
Q 2250 2553 1709 2553 
Q 1456 2553 1204 2497 
Q 953 2441 691 2322 
L 691 4666 
z
" transform="scale(0.015625)"/>
       </defs>
       <use xlink:href="#DejaVuSans-35"/>
       <use xlink:href="#DejaVuSans-30" transform="translate(63.623047 0)"/>
       <use xlink:href="#DejaVuSans-30" transform="translate(127.246094 0)"/>
       <use xlink:href="#DejaVuSans-30" transform="translate(190.869141 0)"/>
      </g>
     </g>
    </g>
    <g id="xtick_7">
     <g id="line2d_7">
      <g>
       <use xlink:href="#m5b31fbc2a3" x="337.600808" y="307.584" style="stroke: #000000; stroke-width: 0.8"/>
      </g>
     </g>
     <g id="text_7">
      <!-- 6000 -->
      <g transform="translate(324.875808 322.182437) scale(0.1 -0.1)">
       <defs>
        <path id="DejaVuSans-36" d="M 2113 2584 
Q 1688 2584 1439 2293 
Q 1191 2003 1191 1497 
Q 1191 994 1439 701 
Q 1688 409 2113 409 
Q 2538 409 2786 701 
Q 3034 994 3034 1497 
Q 3034 2003 2786 2293 
Q 2538 2584 2113 2584 
z
M 3366 4563 
L 3366 3988 
Q 3128 4100 2886 4159 
Q 2644 4219 2406 4219 
Q 1781 4219 1451 3797 
Q 1122 3375 1075 2522 
Q 1259 2794 1537 2939 
Q 1816 3084 2150 3084 
Q 2853 3084 3261 2657 
Q 3669 2231 3669 1497 
Q 3669 778 3244 343 
Q 2819 -91 2113 -91 
Q 1303 -91 875 529 
Q 447 1150 447 2328 
Q 447 3434 972 4092 
Q 1497 4750 2381 4750 
Q 2619 4750 2861 4703 
Q 3103 4656 3366 4563 
z
" transform="scale(0.015625)"/>
       </defs>
       <use xlink:href="#DejaVuSans-36"/>
       <use xlink:href="#DejaVuSans-30" transform="translate(63.623047 0)"/>
       <use xlink:href="#DejaVuSans-30" transform="translate(127.246094 0)"/>
       <use xlink:href="#DejaVuSans-30" transform="translate(190.869141 0)"/>
      </g>
     </g>
    </g>
    <g id="xtick_8">
     <g id="line2d_8">
      <g>
       <use xlink:href="#m5b31fbc2a3" x="381.562154" y="307.584" style="stroke: #000000; stroke-width: 0.8"/>
      </g>
     </g>
     <g id="text_8">
      <!-- 7000 -->
      <g transform="translate(368.837154 322.182437) scale(0.1 -0.1)">
       <defs>
        <path id="DejaVuSans-37" d="M 525 4666 
L 3525 4666 
L 3525 4397 
L 1831 0 
L 1172 0 
L 2766 4134 
L 525 4134 
L 525 4666 
z
" transform="scale(0.015625)"/>
       </defs>
       <use xlink:href="#DejaVuSans-37"/>
       <use xlink:href="#DejaVuSans-30" transform="translate(63.623047 0)"/>
       <use xlink:href="#DejaVuSans-30" transform="translate(127.246094 0)"/>
       <use xlink:href="#DejaVuSans-30" transform="translate(190.869141 0)"/>
      </g>
     </g>
    </g>
   </g>
   <g id="matplotlib.axis_2">
    <g id="ytick_1">
     <g id="line2d_9">
      <defs>
       <path id="m574c7ead46" d="M 0 0 
L -3.5 0 
" style="stroke: #000000; stroke-width: 0.8"/>
      </defs>
      <g>
       <use xlink:href="#m574c7ead46" x="57.6" y="278.327634" style="stroke: #000000; stroke-width: 0.8"/>
      </g>
     </g>
     <g id="text_9">
      <!-- −4 -->
      <g transform="translate(35.857813 282.126853) scale(0.1 -0.1)">
       <defs>
        <path id="DejaVuSans-2212" d="M 678 2272 
L 4684 2272 
L 4684 1741 
L 678 1741 
L 678 2272 
z
" transform="scale(0.015625)"/>
       </defs>
       <use xlink:href="#DejaVuSans-2212"/>
       <use xlink:href="#DejaVuSans-34" transform="translate(83.789062 0)"/>
      </g>
     </g>
    </g>
    <g id="ytick_2">
     <g id="line2d_10">
      <g>
       <use xlink:href="#m574c7ead46" x="57.6" y="247.318646" style="stroke: #000000; stroke-width: 0.8"/>
      </g>
     </g>
     <g id="text_10">
      <!-- −2 -->
      <g transform="translate(35.857813 251.117864) scale(0.1 -0.1)">
       <use xlink:href="#DejaVuSans-2212"/>
       <use xlink:href="#DejaVuSans-32" transform="translate(83.789062 0)"/>
      </g>
     </g>
    </g>
    <g id="ytick_3">
     <g id="line2d_11">
      <g>
       <use xlink:href="#m574c7ead46" x="57.6" y="216.309657" style="stroke: #000000; stroke-width: 0.8"/>
      </g>
     </g>
     <g id="text_11">
      <!-- 0 -->
      <g transform="translate(44.2375 220.108876) scale(0.1 -0.1)">
       <use xlink:href="#DejaVuSans-30"/>
      </g>
     </g>
    </g>
    <g id="ytick_4">
     <g id="line2d_12">
      <g>
       <use xlink:href="#m574c7ead46" x="57.6" y="185.300668" style="stroke: #000000; stroke-width: 0.8"/>
      </g>
     </g>
     <g id="text_12">
      <!-- 2 -->
      <g transform="translate(44.2375 189.099887) scale(0.1 -0.1)">
       <use xlink:href="#DejaVuSans-32"/>
      </g>
     </g>
    </g>
    <g id="ytick_5">
     <g id="line2d_13">
      <g>
       <use xlink:href="#m574c7ead46" x="57.6" y="154.291679" style="stroke: #000000; stroke-width: 0.8"/>
      </g>
     </g>
     <g id="text_13">
      <!-- 4 -->
      <g transform="translate(44.2375 158.090898) scale(0.1 -0.1)">
       <use xlink:href="#DejaVuSans-34"/>
      </g>
     </g>
    </g>
    <g id="ytick_6">
     <g id="line2d_14">
      <g>
       <use xlink:href="#m574c7ead46" x="57.6" y="123.282691" style="stroke: #000000; stroke-width: 0.8"/>
      </g>
     </g>
     <g id="text_14">
      <!-- 6 -->
      <g transform="translate(44.2375 127.081909) scale(0.1 -0.1)">
       <use xlink:href="#DejaVuSans-36"/>
      </g>
     </g>
    </g>
    <g id="ytick_7">
     <g id="line2d_15">
      <g>
       <use xlink:href="#m574c7ead46" x="57.6" y="92.273702" style="stroke: #000000; stroke-width: 0.8"/>
      </g>
     </g>
     <g id="text_15">
      <!-- 8 -->
      <g transform="translate(44.2375 96.072921) scale(0.1 -0.1)">
       <defs>
        <path id="DejaVuSans-38" d="M 2034 2216 
Q 1584 2216 1326 1975 
Q 1069 1734 1069 1313 
Q 1069 891 1326 650 
Q 1584 409 2034 409 
Q 2484 409 2743 651 
Q 3003 894 3003 1313 
Q 3003 1734 2745 1975 
Q 2488 2216 2034 2216 
z
M 1403 2484 
Q 997 2584 770 2862 
Q 544 3141 544 3541 
Q 544 4100 942 4425 
Q 1341 4750 2034 4750 
Q 2731 4750 3128 4425 
Q 3525 4100 3525 3541 
Q 3525 3141 3298 2862 
Q 3072 2584 2669 2484 
Q 3125 2378 3379 2068 
Q 3634 1759 3634 1313 
Q 3634 634 3220 271 
Q 2806 -91 2034 -91 
Q 1263 -91 848 271 
Q 434 634 434 1313 
Q 434 1759 690 2068 
Q 947 2378 1403 2484 
z
M 1172 3481 
Q 1172 3119 1398 2916 
Q 1625 2713 2034 2713 
Q 2441 2713 2670 2916 
Q 2900 3119 2900 3481 
Q 2900 3844 2670 4047 
Q 2441 4250 2034 4250 
Q 1625 4250 1398 4047 
Q 1172 3844 1172 3481 
z
" transform="scale(0.015625)"/>
       </defs>
       <use xlink:href="#DejaVuSans-38"/>
      </g>
     </g>
    </g>
    <g id="ytick_8">
     <g id="line2d_16">
      <g>
       <use xlink:href="#m574c7ead46" x="57.6" y="61.264713" style="stroke: #000000; stroke-width: 0.8"/>
      </g>
     </g>
     <g id="text_16">
      <!-- 10 -->
      <g transform="translate(37.875 65.063932) scale(0.1 -0.1)">
       <use xlink:href="#DejaVuSans-31"/>
       <use xlink:href="#DejaVuSans-30" transform="translate(63.623047 0)"/>
      </g>
     </g>
    </g>
   </g>
   <g id="line2d_17">
    <path d="M 73.832727 212.741849 
L 75.54722 212.433134 
L 75.679104 211.287485 
L 75.723065 212.402125 
L 75.767027 212.394372 
L 75.810988 211.270662 
L 75.854949 212.378868 
L 76.030795 212.347859 
L 76.162679 211.234266 
L 76.20664 212.31685 
L 76.294563 212.301345 
L 76.558331 212.254831 
L 76.602292 211.182188 
L 76.646253 212.239327 
L 76.778138 212.21607 
L 76.822099 211.15608 
L 76.86606 212.200565 
L 76.997944 212.177309 
L 77.041906 211.129927 
L 77.085867 212.161804 
L 77.129828 212.154052 
L 77.17379 211.119232 
L 77.217751 212.138547 
L 77.261712 212.130795 
L 77.305674 211.102238 
L 77.349635 212.11529 
L 77.437558 212.099786 
L 77.52548 211.075968 
L 77.569442 212.076529 
L 77.613403 211.066691 
L 77.657364 212.061024 
L 77.877171 212.022263 
L 77.921133 211.031037 
L 77.965094 212.006758 
L 78.009055 211.999006 
L 78.053017 211.013959 
L 78.096978 211.983502 
L 78.140939 211.975749 
L 78.184901 210.99687 
L 78.228862 211.960245 
L 78.624514 211.844709 
L 78.976205 211.828456 
L 79.15205 211.815774 
L 79.196012 210.839294 
L 79.239973 211.781942 
L 79.503741 211.743857 
L 80.1192 211.655577 
L 80.163161 210.841629 
L 80.207123 211.640072 
L 80.470891 211.550069 
L 80.558813 214.275398 
L 80.602775 214.26662 
L 80.646736 214.259893 
L 80.690697 211.531771 
L 80.734659 213.834522 
L 80.77862 214.2571 
L 80.866543 214.221132 
L 81.042388 214.213361 
L 81.086349 213.555024 
L 81.174272 213.699899 
L 81.218234 214.159113 
L 81.306156 214.146655 
L 81.701808 214.036762 
L 81.833692 213.439721 
L 81.877654 214.000692 
L 81.965576 213.985187 
L 82.009538 213.978715 
L 82.09746 213.268866 
L 82.141422 213.975874 
L 82.273306 211.950662 
L 82.361229 212.026527 
L 82.668958 210.953742 
L 82.712919 211.032873 
L 82.888765 210.971926 
L 82.932726 210.849833 
L 82.976687 209.933246 
L 83.020649 210.918558 
L 83.240455 210.908609 
L 83.284417 210.005761 
L 83.328378 210.893735 
L 83.416301 210.858344 
L 83.460262 209.790406 
L 83.504224 210.815432 
L 83.592146 210.799927 
L 83.636108 209.759398 
L 83.680069 210.784423 
L 83.943837 210.785875 
L 83.987798 209.691515 
L 84.03176 210.076816 
L 84.075721 210.790312 
L 84.163644 210.774808 
L 84.38345 210.724083 
L 84.427412 209.763323 
L 84.471373 210.720543 
L 84.647219 210.660541 
L 84.69118 209.593299 
L 84.735141 210.616225 
L 85.042871 210.544107 
L 85.086832 209.497279 
L 85.130793 210.546456 
L 85.3506 210.545038 
L 86.185866 210.451983 
L 86.229827 209.37217 
L 86.273788 210.436479 
L 86.625479 210.406412 
L 87.109054 210.297001 
L 87.416783 210.313533 
L 87.768474 210.191593 
L 87.812436 209.106797 
L 87.856397 210.172743 
L 87.900358 210.14965 
L 87.94432 209.05716 
L 87.988281 210.100372 
L 88.164126 209.018399 
L 88.252049 210.102974 
L 88.29601 210.079881 
L 88.339972 209.010956 
L 88.383933 210.088686 
L 88.427894 209.023299 
L 88.471856 210.107014 
L 88.559778 210.073336 
L 88.60374 210.049926 
L 88.647701 208.984539 
L 88.691662 210.034421 
L 88.735624 209.69821 
L 88.779585 210.018917 
L 88.823547 210.011165 
L 88.867508 209.310559 
L 88.911469 210.031899 
L 88.955431 209.322348 
L 89.087315 210.035699 
L 89.26316 210.0154 
L 89.307121 208.855571 
L 89.351083 209.971474 
L 89.395044 209.975357 
L 89.439005 209.175514 
L 89.526928 209.583341 
L 89.614851 208.772575 
L 89.658812 209.912801 
L 89.746735 209.868327 
L 89.790696 209.874451 
L 89.834657 54.803581 
L 89.878619 213.808807 
L 90.582 213.784853 
L 90.669923 213.207799 
L 90.757846 213.14528 
L 90.801807 213.854204 
L 90.845768 213.882147 
L 90.88973 212.966634 
L 90.933691 213.866575 
L 91.065575 213.821724 
L 91.109537 212.888986 
L 91.153498 213.860702 
L 91.197459 213.820062 
L 91.241421 212.98252 
L 91.285382 213.804625 
L 91.54915 213.720973 
L 91.900841 213.736504 
L 92.076686 213.68993 
L 92.20857 213.70188 
L 92.428377 213.655428 
L 92.5163 213.639923 
L 92.780068 213.530579 
L 92.911952 212.451364 
L 92.955913 212.506856 
L 93.087797 213.511891 
L 93.307604 213.443453 
L 93.439488 213.443783 
L 93.571372 212.496012 
L 93.615333 212.444202 
L 93.703256 213.39367 
L 93.747217 212.482894 
L 93.791179 213.314702 
L 93.83514 213.335597 
L 93.879101 212.428032 
L 93.923063 213.325863 
L 93.967024 213.353002 
L 94.010985 212.360103 
L 94.054947 212.415263 
L 94.098908 213.294854 
L 94.186831 213.279349 
L 94.230792 213.242881 
L 94.274753 212.510447 
L 94.318715 213.227376 
L 94.582483 213.118993 
L 94.626444 212.186839 
L 94.670406 213.103488 
L 94.758328 213.098694 
L 94.80229 212.345213 
L 94.890212 212.447132 
L 95.022096 213.111054 
L 95.066058 213.138086 
L 95.110019 212.404852 
L 95.15398 213.047841 
L 95.197942 213.080045 
L 95.241903 212.360643 
L 95.329826 212.401923 
L 95.417749 212.997719 
L 95.46171 212.952382 
L 95.549633 212.936878 
L 95.593594 212.179321 
L 95.637555 212.921373 
L 95.813401 212.909058 
L 95.901323 212.889611 
L 96.165091 212.771585 
L 96.209053 212.015862 
L 96.253014 212.827592 
L 96.384898 212.86927 
L 96.428859 212.209503 
L 96.472821 212.782498 
L 96.516782 212.73894 
L 96.604705 212.199997 
L 96.648666 212.736967 
L 96.692628 212.689033 
L 96.736589 212.188354 
L 96.78055 212.741966 
L 96.868473 212.658024 
L 96.956396 212.163278 
L 97.000357 212.68075 
L 97.044318 212.627015 
L 97.08828 212.147653 
L 97.132241 212.528296 
L 97.220164 212.502787 
L 97.308086 212.419519 
L 97.352048 211.871238 
L 97.396009 212.100863 
L 97.527893 212.416915 
L 97.615816 212.464579 
L 97.659777 212.121256 
L 97.703739 212.450701 
L 97.791661 212.430365 
L 97.835623 211.805779 
L 97.923545 212.081437 
L 97.967507 212.326664 
L 98.055429 212.246205 
L 98.099391 211.943432 
L 98.143352 212.170932 
L 98.275236 212.167112 
L 98.319197 211.629028 
L 98.363159 212.113165 
L 98.40712 212.096804 
L 98.451081 211.436818 
L 98.495043 212.074799 
L 98.539004 212.065461 
L 98.582965 211.441806 
L 98.626927 212.103903 
L 98.758811 212.1422 
L 98.890695 211.108738 
L 98.934656 211.933733 
L 99.022579 211.915255 
L 99.06654 210.912349 
L 99.110502 211.906859 
L 99.286347 211.713387 
L 99.330308 214.375264 
L 99.418231 214.314938 
L 99.550115 214.291681 
L 99.681999 214.319873 
L 99.769922 210.986618 
L 99.813883 211.592451 
L 99.857845 211.603666 
L 99.989729 210.878499 
L 100.077651 210.780087 
L 100.121613 210.837809 
L 100.165574 210.900068 
L 100.209535 210.82813 
L 100.297458 210.713633 
L 100.341419 211.721114 
L 100.385381 210.655098 
L 100.429342 210.732539 
L 100.473303 210.646037 
L 100.517265 211.830751 
L 100.605187 211.808518 
L 100.737071 211.849355 
L 100.868955 211.924028 
L 101.00084 212.002238 
L 101.088762 212.091539 
L 101.748182 213.614733 
L 102.099873 215.995435 
L 102.143835 217.945872 
L 102.187796 295.488 
L 102.231757 213.484606 
L 102.627409 213.648393 
L 102.935139 213.74292 
L 104.869438 213.611719 
L 105.396974 213.760599 
L 105.528858 213.752562 
L 105.704704 213.782451 
L 106.012433 213.721431 
L 106.23224 213.748307 
L 106.452047 213.714379 
L 106.627892 213.784867 
L 106.759776 213.750369 
L 106.935621 213.789527 
L 107.111467 213.73321 
L 107.243351 213.708923 
L 108.430307 213.805558 
L 108.562191 213.862703 
L 109.83707 214.060044 
L 109.968954 214.06588 
L 110.1448 214.070894 
L 110.364606 214.1683 
L 110.716297 214.18735 
L 111.375717 214.579873 
L 111.419679 214.421253 
L 111.507601 214.496494 
L 111.771369 214.749015 
L 111.903254 214.891267 
L 111.947215 214.748675 
L 111.991176 214.945431 
L 112.035138 216.642246 
L 112.12306 216.626742 
L 112.386828 216.580229 
L 112.43079 219.31331 
L 112.518712 219.297806 
L 112.958326 219.220285 
L 113.046249 218.099311 
L 113.09021 218.338234 
L 113.134171 219.189276 
L 113.222094 219.173772 
L 113.397939 219.142763 
L 113.441901 217.088522 
L 113.485862 219.127259 
L 113.617746 219.104003 
L 113.661707 217.524839 
L 113.74963 211.160238 
L 113.793591 211.482272 
L 113.837553 288.985072 
L 113.881514 213.424359 
L 114.013398 213.468674 
L 114.101321 212.507077 
L 114.145282 213.483905 
L 114.233205 213.455113 
L 114.71678 213.581904 
L 114.760741 212.565217 
L 114.804702 213.563044 
L 114.848664 213.585449 
L 114.936586 212.499277 
L 115.024509 213.674847 
L 115.06847 213.653985 
L 115.596007 213.861215 
L 116.03562 214.064517 
L 116.958808 213.931672 
L 118.145765 213.944418 
L 118.453494 214.033888 
L 118.497456 212.951248 
L 118.541417 214.071488 
L 118.849146 214.198721 
L 118.937069 213.986336 
L 118.98103 214.11034 
L 119.332721 214.48236 
L 119.420644 216.466749 
L 119.464605 293.704157 
L 119.508567 213.728296 
L 120.475716 213.659609 
L 120.519677 213.667066 
L 120.563639 212.654968 
L 120.6076 213.687486 
L 120.651562 212.817643 
L 120.783446 213.72934 
L 121.003252 213.802917 
L 121.047214 213.285383 
L 121.091175 213.797656 
L 121.179098 213.837118 
L 121.223059 212.840539 
L 121.26702 213.092899 
L 121.354943 212.922263 
L 121.398904 213.883018 
L 121.794557 213.994247 
L 121.970402 214.003594 
L 122.453977 214.115905 
L 122.629822 214.135979 
L 123.069436 214.244577 
L 123.157358 214.059214 
L 123.289242 214.262217 
L 123.55301 214.453527 
L 123.684894 214.600392 
L 123.816778 216.611211 
L 123.86074 216.807319 
L 123.904701 294.371551 
L 123.948663 213.688774 
L 125.267503 214.085775 
L 125.443348 214.150593 
L 125.575232 215.468787 
L 125.751078 215.479365 
L 125.795039 216.449311 
L 125.882962 216.443359 
L 126.981995 216.500282 
L 127.245764 214.407909 
L 127.289725 214.177362 
L 127.333686 214.461828 
L 127.509532 214.44803 
L 127.597454 214.461559 
L 127.685377 214.588699 
L 127.7733 216.614549 
L 127.817261 294.099122 
L 127.861222 213.370563 
L 129.927406 214.086793 
L 130.05929 215.583709 
L 130.147212 214.083868 
L 130.279096 215.598167 
L 130.323058 215.606927 
L 130.454942 216.418267 
L 130.498903 216.691668 
L 130.542865 294.263157 
L 130.586826 213.844309 
L 130.71871 213.862278 
L 131.553976 214.229736 
L 131.597937 214.39338 
L 131.729821 216.421994 
L 131.773782 216.419197 
L 131.817744 216.799232 
L 131.861705 294.197339 
L 131.905666 213.419564 
L 132.03755 213.411976 
L 132.081512 212.615293 
L 132.125473 213.431116 
L 132.433202 213.5359 
L 132.477164 212.757709 
L 132.521125 213.032032 
L 132.609048 213.544647 
L 132.653009 213.536895 
L 132.828855 212.568189 
L 132.872816 212.603302 
L 133.0047 213.647156 
L 133.048661 212.568753 
L 133.092623 212.759556 
L 133.224507 213.661767 
L 133.839966 214.15102 
L 133.97185 215.872847 
L 134.015811 215.904155 
L 134.147695 216.373618 
L 134.191656 215.929582 
L 134.279579 215.938846 
L 134.763154 216.07255 
L 134.982961 216.161238 
L 135.026922 214.517161 
L 135.114845 214.523261 
L 135.246729 216.317325 
L 135.29069 216.365501 
L 135.334651 214.388688 
L 135.378613 215.278964 
L 135.422574 291.87852 
L 135.466535 213.714186 
L 135.642381 213.681624 
L 135.862187 213.657318 
L 135.906149 212.683544 
L 135.95011 213.673375 
L 135.994072 213.684332 
L 136.038033 212.94768 
L 136.081994 213.036604 
L 136.213878 213.732223 
L 136.345762 213.736457 
L 136.389724 213.132737 
L 136.433685 213.3421 
L 136.477646 213.759381 
L 136.565569 213.743877 
L 136.60953 213.065007 
L 136.653492 213.772414 
L 136.697453 213.794611 
L 136.741414 213.248895 
L 136.785376 213.835562 
L 136.91726 213.907175 
L 136.961221 213.144275 
L 137.005182 213.943942 
L 137.664603 214.236392 
L 137.884409 216.579106 
L 137.928371 294.01539 
L 137.972332 213.904875 
L 138.54383 213.894725 
L 138.631752 213.911401 
L 138.675714 212.810503 
L 138.763636 213.943327 
L 138.807598 213.915197 
L 138.851559 213.891668 
L 138.89552 213.064771 
L 138.939482 213.912318 
L 138.983443 213.929929 
L 139.027404 213.327911 
L 139.071366 213.958299 
L 139.115327 213.365942 
L 139.20325 213.202812 
L 139.247211 213.97982 
L 139.335134 213.956034 
L 139.423057 213.084745 
L 139.554941 213.949927 
L 139.730786 213.957273 
L 139.818709 213.185631 
L 139.86267 213.958469 
L 139.906631 213.412197 
L 139.994554 213.359533 
L 140.082477 214.036555 
L 140.126438 214.028802 
L 140.170399 214.02105 
L 140.214361 213.165599 
L 140.258322 214.064183 
L 140.390206 214.068076 
L 140.917742 214.281293 
L 141.049626 215.834027 
L 141.313394 215.933325 
L 141.445279 215.988372 
L 141.577163 216.529476 
L 141.796969 216.659612 
L 141.840931 216.88108 
L 141.884892 294.292992 
L 141.928853 212.870001 
L 141.972815 212.877043 
L 142.104699 212.580689 
L 142.14866 212.846034 
L 142.192621 212.562915 
L 142.324505 212.499477 
L 142.368467 212.791753 
L 142.412428 212.531673 
L 142.456389 212.52161 
L 142.500351 212.771918 
L 142.544312 212.764165 
L 142.676196 212.476275 
L 142.852042 212.442988 
L 142.939964 212.653079 
L 142.983926 212.426683 
L 143.027887 212.614872 
L 143.071848 212.607119 
L 143.159771 212.392981 
L 143.247694 212.55964 
L 143.291655 212.376033 
L 143.335616 212.544135 
L 143.4675 212.537349 
L 143.511462 212.344241 
L 143.599385 212.37192 
L 143.687307 212.319591 
L 143.731269 212.490835 
L 143.819191 212.299476 
L 143.951075 212.452074 
L 143.995037 212.275922 
L 144.038998 212.310704 
L 144.082959 212.457528 
L 144.126921 212.259025 
L 144.302766 212.190029 
L 144.43465 212.390646 
L 144.566534 212.112246 
L 144.654457 212.057973 
L 144.698418 212.327136 
L 144.74238 212.319383 
L 144.874264 212.026823 
L 144.962186 212.011356 
L 145.006148 212.292106 
L 145.138032 211.988095 
L 145.225954 211.976431 
L 145.269916 212.245593 
L 145.313877 211.964743 
L 145.4018 211.909763 
L 145.445761 212.20628 
L 145.489722 211.898234 
L 145.533684 211.890301 
L 145.621606 212.195147 
L 145.665568 212.187395 
L 145.797452 211.851851 
L 145.841413 212.156386 
L 145.929336 212.140881 
L 145.973297 211.547562 
L 146.06122 211.81733 
L 146.105181 212.109872 
L 146.149143 211.805779 
L 146.237065 211.794205 
L 146.281027 211.508769 
L 146.324988 211.782608 
L 146.544795 211.748034 
L 146.588756 212.044551 
L 146.676679 212.029047 
L 146.764601 212.020927 
L 146.896486 211.74699 
L 147.02837 211.978824 
L 147.072331 211.762673 
L 147.116292 211.96332 
L 147.160254 211.955567 
L 147.204215 211.746123 
L 147.248176 211.940063 
L 147.336099 211.924558 
L 147.424022 211.713971 
L 147.467983 211.750947 
L 147.599867 211.896959 
L 147.775712 211.86595 
L 147.951558 211.560836 
L 147.995519 211.511501 
L 148.039481 211.781455 
L 148.083442 211.771861 
L 148.171365 211.349661 
L 148.215326 211.789101 
L 148.259287 211.25728 
L 148.303249 211.775792 
L 148.435133 211.043149 
L 148.479094 211.784362 
L 148.523055 210.933426 
L 148.698901 210.779292 
L 148.830785 211.845404 
L 149.226437 212.170183 
L 149.402282 212.279699 
L 149.534166 212.334461 
L 149.753973 212.840993 
L 150.413393 215.457012 
L 150.457355 216.814515 
L 150.501316 215.159204 
L 150.589239 215.450204 
L 150.6332 293.106259 
L 150.677161 213.622308 
L 152.963151 213.128228 
L 153.226919 213.045928 
L 153.358803 212.957838 
L 153.402765 211.879879 
L 153.446726 212.943362 
L 153.534649 212.927858 
L 153.57861 211.84887 
L 153.622572 212.913499 
L 153.710494 212.897994 
L 153.798417 211.74873 
L 153.842378 211.773034 
L 153.88634 211.765963 
L 153.930301 212.848547 
L 153.974262 212.840795 
L 154.106146 211.69595 
L 154.150108 212.81059 
L 154.194069 212.802837 
L 154.23803 211.660396 
L 154.281992 212.778011 
L 154.501798 212.743783 
L 154.54576 211.607195 
L 154.589721 212.729466 
L 154.633683 212.721714 
L 154.677644 211.57839 
L 154.721605 212.700805 
L 154.765567 212.687633 
L 154.809528 211.696407 
L 154.853489 212.669874 
L 155.073296 212.635162 
L 155.20518 211.475013 
L 155.249141 212.609672 
L 155.337064 212.555092 
L 155.512909 212.485561 
L 155.556871 211.500515 
L 155.600832 212.432338 
L 155.952523 212.315297 
L 155.996484 212.023787 
L 156.040446 212.299793 
L 156.480059 212.223196 
L 156.567982 211.796979 
L 156.611943 212.180418 
L 156.655904 212.172666 
L 156.699866 211.169428 
L 156.787789 211.435675 
L 156.83175 212.135555 
L 156.919673 212.114004 
L 157.315325 211.95588 
L 157.359286 211.683403 
L 157.403247 211.940376 
L 157.535131 211.917119 
L 157.579093 211.652094 
L 157.623054 211.901614 
L 157.798899 211.870605 
L 157.842861 210.897881 
L 157.886822 211.855101 
L 159.205663 211.588584 
L 159.249624 210.597856 
L 159.293585 214.333023 
L 159.381508 214.298409 
L 159.469431 213.783479 
L 159.513392 214.269077 
L 159.601315 214.253572 
L 159.953005 214.2908 
L 160.08489 214.352735 
L 160.128851 211.649429 
L 160.216774 211.746601 
L 160.304696 211.667924 
L 160.348658 211.713918 
L 160.392619 210.893594 
L 160.43658 211.755744 
L 160.832232 212.171438 
L 161.139962 212.135607 
L 161.183923 211.423072 
L 161.227885 212.20415 
L 161.271846 212.200067 
L 161.315807 211.223889 
L 161.359769 211.567562 
L 161.40373 212.197125 
L 161.491653 212.123445 
L 161.535614 212.142411 
L 161.667498 211.660697 
L 161.799382 214.843307 
L 162.151073 215.124325 
L 162.37088 215.487184 
L 162.502764 215.956586 
L 162.546725 216.172785 
L 162.590686 213.669592 
L 162.678609 214.122838 
L 162.898416 214.739791 
L 162.942377 214.713707 
L 163.250106 216.590405 
L 163.338029 216.497708 
L 163.469913 216.600839 
L 163.557836 216.585335 
L 163.601797 216.248997 
L 163.645759 216.569831 
L 163.821604 216.538822 
L 163.865565 215.950678 
L 163.953488 216.005784 
L 164.129333 217.626571 
L 164.173295 294.364722 
L 164.217256 212.782352 
L 164.261217 213.549461 
L 164.305179 212.772562 
L 164.34914 212.760311 
L 164.393101 213.501263 
L 164.437063 212.769553 
L 164.481024 212.767382 
L 164.524986 213.478006 
L 164.568947 212.751877 
L 164.612908 212.410264 
L 164.65687 212.736933 
L 164.700831 213.441991 
L 164.744792 212.72698 
L 164.788754 212.782271 
L 164.832715 213.437926 
L 164.920638 213.417553 
L 165.052522 212.918422 
L 165.096483 213.420452 
L 165.184406 213.404947 
L 165.360251 213.390049 
L 165.404212 212.866478 
L 165.448174 213.331601 
L 165.667981 213.262426 
L 165.711942 212.462323 
L 165.755903 212.630256 
L 165.799865 213.223697 
L 165.843826 213.215945 
L 165.97571 212.423552 
L 166.019671 212.4158 
L 166.239478 213.137102 
L 166.283439 213.096616 
L 166.371362 213.053338 
L 166.415323 212.380394 
L 166.459285 213.037833 
L 166.63513 212.983369 
L 166.767014 212.271682 
L 166.810976 212.891205 
L 166.854937 212.879126 
L 166.94286 211.895276 
L 166.986821 212.231868 
L 167.030782 212.794614 
L 167.074744 212.786861 
L 167.162666 211.863923 
L 167.206628 212.767376 
L 167.250589 211.843444 
L 167.338512 212.744119 
L 167.382473 212.736367 
L 167.470396 211.807065 
L 167.514357 212.703422 
L 167.60228 212.294596 
L 167.646241 212.139939 
L 167.690202 212.274076 
L 167.778125 212.71518 
L 167.822087 212.100992 
L 167.866048 212.694022 
L 168.041893 212.631325 
L 168.085855 212.203841 
L 168.129816 212.61582 
L 168.393584 212.540398 
L 168.437545 212.529194 
L 168.481507 211.935113 
L 168.525468 212.507752 
L 168.569429 212.5 
L 168.613391 211.917014 
L 168.701313 212.038498 
L 168.833198 212.462973 
L 168.877159 211.634132 
L 168.92112 212.460328 
L 168.965082 212.447596 
L 169.096966 211.944446 
L 169.140927 212.48056 
L 169.184888 212.066653 
L 169.22885 211.925438 
L 169.272811 212.451602 
L 169.316772 212.44385 
L 169.360734 211.841966 
L 169.404695 212.391091 
L 169.536579 212.359132 
L 169.58054 211.889853 
L 169.624502 212.341543 
L 169.668463 212.333791 
L 169.712424 211.826042 
L 169.756386 212.301737 
L 169.976193 212.214548 
L 170.020154 212.206795 
L 170.108077 211.562216 
L 170.152038 211.696123 
L 170.283922 211.670855 
L 170.327883 212.138909 
L 170.415806 212.123405 
L 170.503729 212.10473 
L 170.54769 211.596996 
L 170.591651 212.049586 
L 170.679574 212.027564 
L 170.767497 211.550532 
L 170.811458 211.960154 
L 170.855419 211.386589 
L 171.163149 211.932142 
L 171.734646 211.859733 
L 171.778608 211.181139 
L 171.86653 211.511285 
L 171.910492 211.792035 
L 171.954453 211.499665 
L 172.130299 211.472519 
L 172.17426 211.116725 
L 172.218221 211.752571 
L 172.306144 211.737067 
L 172.394067 211.221328 
L 172.438028 211.74728 
L 172.525951 211.725941 
L 172.613873 211.752669 
L 172.701796 211.781555 
L 172.745757 211.172609 
L 172.789719 211.76605 
L 172.83368 211.162331 
L 172.877641 211.744118 
L 172.921603 211.736366 
L 172.965564 211.137855 
L 173.009525 211.714458 
L 173.537062 211.634359 
L 173.581023 214.360923 
L 173.624984 211.682434 
L 173.668946 211.672902 
L 173.80083 214.400961 
L 174.064598 214.519018 
L 174.108559 211.824318 
L 174.196482 211.880646 
L 174.240443 214.660259 
L 174.284405 211.961251 
L 174.46025 212.135749 
L 174.504211 212.005846 
L 174.548173 212.054725 
L 174.680057 212.406696 
L 174.724018 212.238818 
L 174.767979 212.586275 
L 174.811941 212.549922 
L 174.855902 212.365492 
L 174.987786 212.995353 
L 175.031747 212.97853 
L 175.11967 212.681366 
L 175.163631 212.853472 
L 175.207593 212.885165 
L 175.4274 213.643545 
L 175.471361 215.230508 
L 175.515322 213.097873 
L 175.559284 213.16079 
L 175.647206 214.643009 
L 175.691168 214.641093 
L 175.910974 215.282812 
L 175.954936 216.771779 
L 176.042858 216.756275 
L 176.130781 216.740771 
L 176.174742 215.147129 
L 176.218704 215.360928 
L 176.262665 293.197696 
L 176.306626 213.670506 
L 176.834163 213.866159 
L 177.053969 213.902419 
L 177.317737 214.108739 
L 177.40566 216.346437 
L 177.493583 216.336746 
L 177.757351 216.347729 
L 177.801312 216.576387 
L 177.845274 293.970578 
L 177.889235 213.240314 
L 177.933196 213.245825 
L 177.977158 212.379546 
L 178.021119 213.261538 
L 178.636578 213.056352 
L 178.768462 212.490242 
L 178.812423 213.018528 
L 178.856385 213.010147 
L 178.900346 212.472075 
L 178.944307 212.993923 
L 178.988269 212.98617 
L 179.120153 212.461232 
L 179.252037 212.960457 
L 179.339959 212.944702 
L 179.427882 212.197718 
L 179.471843 212.924354 
L 179.515805 212.882751 
L 179.559766 212.051798 
L 179.647689 212.088996 
L 179.69165 212.081244 
L 179.735611 212.808526 
L 179.823534 212.760472 
L 179.867496 212.75272 
L 179.911457 212.264127 
L 179.955418 212.775805 
L 180.043341 212.73598 
L 180.087302 212.075321 
L 180.131264 212.711167 
L 180.175225 212.703415 
L 180.219186 212.057423 
L 180.263148 212.702411 
L 180.307109 212.694659 
L 180.482954 212.012309 
L 180.614838 212.577611 
L 180.6588 212.245682 
L 180.702761 212.506156 
L 180.878607 212.48012 
L 180.922568 212.192868 
L 180.966529 212.444334 
L 181.054452 212.439421 
L 181.186336 212.151577 
L 181.274259 212.138731 
L 181.31822 211.84509 
L 181.362181 212.397203 
L 181.406143 211.833889 
L 181.450104 212.103999 
L 181.494065 212.373161 
L 181.538027 212.085482 
L 181.581988 212.350542 
L 181.625949 211.822895 
L 181.669911 212.090385 
L 181.713872 212.330916 
L 181.757833 212.069422 
L 181.801795 212.061669 
L 181.845756 211.784942 
L 181.889717 212.290659 
L 181.933679 212.033072 
L 181.97764 211.752691 
L 182.021602 212.021199 
L 182.109524 212.000507 
L 182.153486 212.187472 
L 182.197447 211.959748 
L 182.373292 212.042834 
L 182.505176 212.140258 
L 183.911939 211.980112 
L 183.955901 211.777884 
L 183.999862 211.964608 
L 184.615321 211.856076 
L 184.659282 211.67302 
L 184.703244 211.832297 
L 185.142857 211.686063 
L 185.582471 211.581132 
L 185.714355 214.326543 
L 186.066045 214.258693 
L 186.110007 214.25094 
L 186.241891 213.752606 
L 186.285852 213.753792 
L 186.329814 214.230253 
L 186.417736 214.214749 
L 186.54962 214.206517 
L 186.593582 213.614053 
L 186.637543 214.205757 
L 186.813388 214.181861 
L 186.85735 213.406675 
L 186.901311 214.166356 
L 187.296963 214.089121 
L 187.340924 213.23171 
L 187.384886 214.053322 
L 187.472809 214.017712 
L 187.51677 213.315616 
L 187.560731 214.002208 
L 187.736577 213.945339 
L 187.824499 213.277935 
L 187.868461 213.918847 
L 187.912422 213.244158 
L 187.956383 213.903342 
L 188.088267 213.185741 
L 188.132229 213.872333 
L 188.17619 213.078875 
L 188.220151 213.856828 
L 188.308074 213.841324 
L 188.352035 213.093547 
L 188.395997 213.829055 
L 188.615804 213.779032 
L 188.747688 211.641608 
L 188.83561 211.537555 
L 188.923533 213.754797 
L 188.967494 213.747045 
L 189.011456 211.278583 
L 189.055417 213.731541 
L 189.14334 212.666221 
L 189.187301 213.708284 
L 189.231262 213.700532 
L 189.319185 211.067153 
L 189.407108 211.019575 
L 189.451069 212.769494 
L 189.49503 210.79024 
L 189.582953 211.112438 
L 189.934644 210.858563 
L 195.913387 209.745668 
L 196.00131 208.669512 
L 196.133194 209.743088 
L 196.177155 53.568 
L 196.221117 213.834105 
L 196.484885 213.794095 
L 196.528846 212.747702 
L 196.572807 213.809139 
L 196.66073 213.802109 
L 196.704691 212.727323 
L 196.748653 213.77813 
L 196.836575 213.769174 
L 196.880537 212.715494 
L 196.924498 213.720972 
L 197.276189 213.656894 
L 197.364112 212.666179 
L 197.408073 213.671059 
L 197.495996 213.655554 
L 198.507107 213.389493 
L 198.770875 213.274154 
L 199.122565 213.179659 
L 199.166527 212.864038 
L 199.210488 213.198928 
L 200.661213 213.058868 
L 201.716285 212.985547 
L 202.243821 212.867918 
L 202.463628 212.887805 
L 202.507589 212.580661 
L 202.55155 212.870255 
L 202.947203 212.820961 
L 202.991164 212.497825 
L 203.035125 212.757685 
L 203.650584 212.624027 
L 203.694545 212.48488 
L 203.738507 212.608522 
L 204.705656 212.504763 
L 204.83754 212.488235 
L 205.101309 212.480729 
L 205.277154 212.701739 
L 205.365077 212.711322 
L 205.452999 212.64574 
L 205.496961 212.832204 
L 205.80469 212.909006 
L 205.892613 212.768246 
L 205.936574 212.784195 
L 205.980535 212.797945 
L 206.200342 212.422538 
L 206.288265 212.528589 
L 206.508072 212.104592 
L 206.552033 212.227787 
L 206.595994 212.210973 
L 206.77184 211.83102 
L 206.859762 211.670022 
L 206.947685 211.983104 
L 207.035608 211.683207 
L 207.079569 211.965161 
L 207.12353 211.890123 
L 207.167492 211.238772 
L 207.255415 211.329172 
L 207.343337 211.772874 
L 207.387299 210.979571 
L 207.43126 211.120474 
L 207.475221 211.762455 
L 207.519183 211.711314 
L 207.563144 210.740325 
L 207.607105 211.68006 
L 207.826912 211.63734 
L 208.925946 211.592723 
L 209.805173 211.64974 
L 209.849134 212.471513 
L 209.937057 212.460193 
L 210.464593 212.386373 
L 210.508554 211.660922 
L 210.552516 212.819044 
L 210.596477 211.645417 
L 210.640438 211.637665 
L 210.772322 213.733183 
L 210.816284 291.714 
L 210.860245 213.261373 
L 210.904206 212.932075 
L 210.992129 213.04134 
L 211.080052 213.223594 
L 211.124013 213.02241 
L 211.167974 213.249763 
L 211.387781 213.258492 
L 211.915317 213.209147 
L 212.574737 213.153819 
L 212.618699 212.914138 
L 212.66266 213.145093 
L 213.541887 212.877668 
L 213.937539 212.905937 
L 214.157346 212.962867 
L 214.377153 213.046151 
L 214.860728 213.098085 
L 214.904689 212.704595 
L 214.94865 212.710103 
L 215.036573 213.09446 
L 215.080534 213.086707 
L 215.212418 213.084289 
L 215.25638 212.653465 
L 215.300341 212.986052 
L 215.871838 212.981398 
L 216.003723 212.582336 
L 216.091645 212.883965 
L 216.135607 212.876212 
L 216.223529 212.970539 
L 216.355413 212.880841 
L 216.751065 212.885448 
L 216.882949 212.987598 
L 217.23464 213.007817 
L 217.366524 212.927168 
L 217.586331 212.955301 
L 217.806138 213.240823 
L 218.421597 213.442691 
L 218.465558 213.323202 
L 218.509519 213.464084 
L 218.597442 213.466648 
L 218.773287 213.211345 
L 218.817249 213.21936 
L 218.86121 213.380118 
L 218.905171 213.203566 
L 219.081017 212.993802 
L 219.124978 213.008243 
L 219.212901 212.85319 
L 219.256862 212.880028 
L 219.300824 212.880142 
L 219.476669 212.385987 
L 219.52063 212.632239 
L 219.564592 212.554973 
L 219.652514 212.320912 
L 219.696476 212.329038 
L 219.82836 212.317013 
L 219.872321 212.339852 
L 220.048166 211.059432 
L 220.136089 211.950728 
L 220.18005 211.864905 
L 220.311935 211.802567 
L 220.575703 211.635793 
L 220.883432 211.601999 
L 220.971355 212.844929 
L 221.015316 212.829149 
L 221.235123 212.800785 
L 221.279084 211.557117 
L 221.323045 212.78528 
L 221.850582 212.693711 
L 221.894543 211.538075 
L 221.982466 211.543028 
L 222.246234 211.56934 
L 222.334156 213.699308 
L 222.378118 291.214285 
L 222.422079 212.963766 
L 225.191644 212.570614 
L 225.235605 211.419742 
L 225.279567 212.527494 
L 225.631257 212.443535 
L 225.851064 212.428292 
L 231.390194 211.487957 
L 231.434155 212.083188 
L 231.522078 211.868154 
L 231.873769 211.397267 
L 231.91773 210.36871 
L 231.961691 211.381763 
L 232.137537 211.35379 
L 232.181498 210.203388 
L 232.225459 211.32198 
L 238.511932 210.249553 
L 238.555893 55.221095 
L 238.599855 213.958495 
L 238.687777 213.948372 
L 238.731739 212.975648 
L 238.7757 213.932868 
L 239.039468 213.886354 
L 239.08343 212.94422 
L 239.127391 213.87085 
L 239.215314 213.833944 
L 239.259275 212.969845 
L 239.303236 213.839841 
L 239.391159 213.802935 
L 239.43512 212.950643 
L 239.479082 213.787431 
L 240.622077 213.630672 
L 240.666038 212.990021 
L 240.709999 213.594964 
L 241.281497 213.445761 
L 241.325458 213.022823 
L 241.36942 213.396402 
L 242.380531 213.261692 
L 242.424492 212.793729 
L 242.468453 213.246187 
L 242.732221 213.224234 
L 242.776183 212.737241 
L 242.820144 213.208729 
L 243.259757 213.224503 
L 243.303719 212.643102 
L 243.34768 213.208999 
L 243.743332 213.17177 
L 243.875216 212.559375 
L 243.919178 213.140761 
L 244.0071 213.101095 
L 244.095023 213.068341 
L 244.138984 212.337641 
L 244.182946 213.087649 
L 244.226907 213.085746 
L 244.358791 212.321697 
L 244.402753 212.319571 
L 244.446714 213.068945 
L 244.490675 212.397786 
L 244.534637 212.478291 
L 244.578598 213.045688 
L 244.666521 213.03592 
L 244.710482 213.062862 
L 244.754443 212.347851 
L 244.798405 213.047357 
L 244.886327 213.031853 
L 244.97425 212.00137 
L 245.062173 213.065486 
L 245.106134 212.389283 
L 245.150095 213.055807 
L 245.194057 213.048055 
L 245.238018 212.056828 
L 245.281979 213.03255 
L 245.325941 213.024798 
L 245.369902 212.051756 
L 245.413863 213.01513 
L 245.457825 212.986449 
L 245.545748 212.038893 
L 245.589709 212.98997 
L 245.63367 212.961397 
L 245.677632 212.257442 
L 245.721593 212.945892 
L 245.765554 212.944107 
L 245.809516 212.220634 
L 245.853477 212.976685 
L 246.073284 212.940785 
L 246.117245 211.868141 
L 246.161206 212.954215 
L 246.205168 212.946463 
L 246.29309 212.975747 
L 246.337052 212.260736 
L 246.381013 212.258519 
L 246.424974 212.958546 
L 246.468936 212.254591 
L 246.556858 211.819666 
L 246.776665 212.963657 
L 247.040433 212.954396 
L 247.084395 212.012216 
L 247.128356 212.944939 
L 247.172317 212.943242 
L 247.304201 211.886875 
L 247.348163 212.899855 
L 247.436085 212.893491 
L 247.611931 212.946046 
L 247.875699 213.470313 
L 248.095506 213.066078 
L 248.139467 212.084695 
L 248.183428 213.065802 
L 248.359274 212.961021 
L 248.403235 212.853796 
L 248.535119 212.000736 
L 248.667003 212.514406 
L 248.710964 212.481646 
L 248.798887 211.952173 
L 248.842849 212.559755 
L 248.930771 212.339493 
L 248.974733 212.331741 
L 249.062655 212.699695 
L 249.106617 212.389733 
L 249.150578 212.793707 
L 249.238501 212.852646 
L 249.502269 213.553127 
L 249.54623 213.507679 
L 249.590191 213.519201 
L 249.85396 214.153699 
L 249.985844 214.350842 
L 250.029805 214.170555 
L 250.073766 214.415246 
L 250.117728 214.305137 
L 250.161689 214.428912 
L 250.249612 214.755513 
L 250.425457 215.589744 
L 250.51338 215.814884 
L 250.557341 216.780654 
L 250.601302 215.164172 
L 250.689225 215.60319 
L 250.733186 293.147603 
L 250.777148 213.393879 
L 250.821109 212.384041 
L 250.86507 213.378375 
L 250.909032 213.371798 
L 250.996955 212.40928 
L 251.040916 213.354227 
L 251.084877 212.395437 
L 251.128839 212.387685 
L 251.1728 213.332632 
L 251.216761 212.372181 
L 251.260723 213.317127 
L 251.304684 213.311131 
L 251.436568 212.335175 
L 251.480529 212.329272 
L 251.524491 213.274219 
L 251.568452 212.307637 
L 251.612413 213.225894 
L 251.876181 213.183649 
L 252.008065 212.219917 
L 252.095988 213.17304 
L 252.227872 212.193195 
L 252.271834 213.144272 
L 252.315795 212.177691 
L 252.359756 212.169938 
L 252.447679 212.150342 
L 252.49164 213.117386 
L 252.755408 213.070873 
L 252.887292 212.074283 
L 252.931254 213.000136 
L 253.019176 212.953724 
L 253.370867 212.947674 
L 253.502751 211.959446 
L 253.546713 211.927533 
L 253.590674 212.940585 
L 253.634635 212.932833 
L 253.678597 211.898013 
L 253.722558 211.914529 
L 253.766519 212.880198 
L 253.854442 212.864693 
L 254.074249 212.825932 
L 254.11821 211.884375 
L 254.162171 212.84775 
L 254.338017 212.77326 
L 254.469901 211.770176 
L 254.513862 211.762424 
L 254.557824 212.763673 
L 254.601785 212.74861 
L 254.645746 211.6569 
L 254.689708 212.733106 
L 254.77763 212.717601 
L 254.821592 211.625891 
L 254.865553 212.734478 
L 255.437051 212.740244 
L 255.612896 212.749315 
L 256.228355 212.732198 
L 256.4042 212.748079 
L 256.580046 212.71707 
L 257.942847 212.392066 
L 258.118693 212.318818 
L 258.909997 212.179277 
L 258.953958 212.231504 
L 258.99792 212.163773 
L 259.745263 212.094376 
L 259.877147 212.141808 
L 260.668451 211.948134 
L 260.712412 214.606959 
L 260.800335 213.444316 
L 260.844296 214.592313 
L 260.888258 213.314641 
L 260.932219 214.572209 
L 261.152026 214.453293 
L 261.195987 213.264912 
L 261.239948 214.522543 
L 261.327871 214.363533 
L 261.415794 214.411982 
L 261.547678 212.689299 
L 261.591639 214.117071 
L 261.6356 212.542233 
L 261.679562 212.516519 
L 261.723523 213.901084 
L 261.767484 212.339969 
L 261.811446 212.305209 
L 261.855407 213.859556 
L 261.94333 213.828777 
L 262.119175 213.764438 
L 262.251059 212.05736 
L 262.338982 211.843765 
L 262.382943 213.687284 
L 262.470866 213.414079 
L 262.60275 211.436047 
L 262.646711 213.335563 
L 262.690673 211.325459 
L 262.866518 211.095475 
L 262.910479 213.203816 
L 262.998402 213.155733 
L 263.086325 213.131596 
L 263.218209 212.842985 
L 263.350093 212.746639 
L 263.5699 212.016006 
L 263.657822 211.900005 
L 263.701784 211.041305 
L 263.789706 211.051029 
L 263.833668 211.634282 
L 263.877629 211.229324 
L 264.009513 210.950256 
L 264.053474 210.127307 
L 264.097436 210.533589 
L 264.141397 210.817367 
L 264.185359 210.783438 
L 264.273281 210.810377 
L 264.317243 209.874323 
L 264.361204 210.794873 
L 264.449127 210.779369 
L 264.537049 210.763864 
L 264.624972 209.874201 
L 264.668933 210.740608 
L 264.756856 210.461698 
L 264.800817 210.730022 
L 264.844779 210.3128 
L 264.88874 210.714517 
L 264.976663 210.82225 
L 265.020624 210.79984 
L 265.19647 210.768831 
L 265.240431 209.611816 
L 265.284392 210.658352 
L 265.372315 210.663465 
L 265.416276 210.352356 
L 265.460238 210.64796 
L 265.767967 210.592448 
L 265.899851 209.4524 
L 265.943812 209.760516 
L 265.987774 288.083947 
L 266.031735 213.49719 
L 266.427387 213.400265 
L 266.471349 212.464211 
L 266.51531 213.384761 
L 268.449609 213.082318 
L 268.537532 212.204542 
L 268.581493 213.059061 
L 268.625455 213.04818 
L 268.669416 212.18408 
L 268.713377 213.032675 
L 269.240913 212.976603 
L 269.328836 212.145836 
L 269.372797 212.953346 
L 269.46072 212.937842 
L 269.944295 212.898519 
L 269.988256 212.115906 
L 270.032218 212.883014 
L 270.076179 212.875262 
L 270.208063 211.674285 
L 270.252024 212.788924 
L 270.295986 212.781172 
L 270.339947 211.657461 
L 270.383908 212.010576 
L 270.515792 212.80813 
L 270.559754 211.949941 
L 270.603715 212.014591 
L 270.647676 212.798929 
L 270.735599 212.780498 
L 271.043329 212.75465 
L 271.08729 211.872739 
L 271.131251 212.73679 
L 271.395019 212.658533 
L 271.482942 211.546304 
L 271.526903 212.632523 
L 271.614826 212.579506 
L 271.790672 212.529836 
L 271.834633 211.450449 
L 271.922556 211.803708 
L 272.05444 212.415992 
L 272.142362 211.496424 
L 272.186324 212.34729 
L 272.274246 212.325825 
L 272.40613 212.299204 
L 272.450092 211.446912 
L 272.494053 212.283951 
L 272.538014 212.275948 
L 272.581976 211.426496 
L 272.625937 212.257152 
L 272.71386 212.200016 
L 272.757821 211.728627 
L 272.801782 212.180994 
L 272.845744 212.153844 
L 272.889705 211.306617 
L 272.933667 212.173451 
L 273.065551 212.140813 
L 273.153473 211.60711 
L 273.197435 211.613177 
L 273.241396 211.604017 
L 273.285357 212.144444 
L 273.37328 212.075125 
L 273.593087 211.989272 
L 273.681009 211.176893 
L 273.724971 212.001928 
L 273.768932 211.507881 
L 273.812893 211.500129 
L 273.856855 212.026746 
L 273.900816 212.018994 
L 273.944777 211.556807 
L 273.988739 212.018742 
L 274.0327 212.002139 
L 274.076662 211.534176 
L 274.164584 211.582387 
L 274.208546 211.990125 
L 274.252507 211.982373 
L 274.34043 211.554448 
L 274.428352 211.968178 
L 274.472314 211.960426 
L 274.560236 211.944921 
L 274.604198 211.57679 
L 274.648159 211.925925 
L 274.867966 211.953033 
L 274.911927 211.633963 
L 274.955888 212.036038 
L 274.99985 211.671814 
L 275.131734 212.262973 
L 275.175695 212.318515 
L 275.263618 212.40006 
L 275.307579 211.592362 
L 275.351541 212.436024 
L 275.395502 212.428272 
L 275.439463 211.679728 
L 275.527386 211.792714 
L 275.571347 211.88883 
L 275.65927 212.5887 
L 275.703231 212.54728 
L 276.142845 213.101141 
L 276.450574 213.870079 
L 276.494536 213.805611 
L 276.758304 214.701675 
L 276.802265 214.687905 
L 276.846226 214.450163 
L 276.934149 215.310299 
L 276.97811 215.174808 
L 277.066033 215.559575 
L 277.109994 216.789518 
L 277.153956 216.781766 
L 277.197917 215.080775 
L 277.28584 215.343923 
L 277.329801 293.148714 
L 277.373763 213.809745 
L 277.505647 213.745763 
L 277.549608 213.287365 
L 277.593569 213.735113 
L 277.769415 213.675281 
L 277.813376 212.886939 
L 277.857337 213.659776 
L 277.901299 213.652024 
L 277.94526 213.155403 
L 277.989221 213.641476 
L 278.077144 213.625972 
L 278.121105 212.86519 
L 278.165067 212.883458 
L 278.209028 213.559006 
L 278.296951 213.499478 
L 278.428835 213.000758 
L 278.472796 213.429858 
L 278.560719 213.414353 
L 278.780526 213.380449 
L 278.824487 212.954178 
L 278.868448 213.364944 
L 279.176178 213.315512 
L 279.220139 212.911712 
L 279.2641 213.300007 
L 279.439946 213.307605 
L 279.615791 213.218477 
L 279.703714 212.491573 
L 279.747675 213.19108 
L 279.835598 213.175575 
L 280.011443 213.169863 
L 280.099366 212.72724 
L 280.143327 213.151727 
L 280.23125 213.136223 
L 280.363134 213.181255 
L 280.495018 212.664287 
L 280.53898 212.67221 
L 280.582941 213.084754 
L 280.626902 213.077002 
L 280.714825 212.179921 
L 280.758786 213.067965 
L 280.846709 213.048573 
L 280.89067 213.040821 
L 280.934632 212.44911 
L 280.978593 213.025316 
L 281.330284 212.968958 
L 281.418206 211.996221 
L 281.462168 212.928944 
L 281.55009 212.913439 
L 281.594052 212.905687 
L 281.638013 211.981509 
L 281.725936 212.309735 
L 281.769897 211.98375 
L 281.813859 212.304966 
L 281.85782 212.864983 
L 281.901781 211.959138 
L 281.945743 212.364225 
L 282.033665 212.333701 
L 282.077627 212.941241 
L 282.209511 212.923875 
L 282.253472 212.316574 
L 282.297433 212.908371 
L 282.341395 212.900618 
L 282.385356 211.994659 
L 282.429317 212.891016 
L 282.51724 212.923083 
L 282.649124 211.953116 
L 282.693085 212.90077 
L 282.781008 212.885266 
L 282.82497 211.949154 
L 282.868931 212.875784 
L 283.000815 212.885428 
L 283.044776 212.349555 
L 283.088738 212.875836 
L 283.264583 212.850749 
L 283.352506 212.337725 
L 283.440428 212.879446 
L 283.48439 212.846284 
L 283.660235 212.804182 
L 283.704196 212.120079 
L 283.748158 212.857614 
L 283.880042 212.843526 
L 284.187771 213.294066 
L 284.583423 213.323578 
L 284.891153 212.62182 
L 284.935114 212.000268 
L 284.979076 212.621474 
L 285.023037 212.647111 
L 285.066998 212.156452 
L 285.11096 212.691479 
L 285.242844 212.809345 
L 285.286805 212.309669 
L 285.374728 212.548128 
L 285.506612 213.03681 
L 285.550573 212.970564 
L 285.77038 213.355616 
L 285.946225 213.250631 
L 286.034148 213.49676 
L 286.078109 215.198852 
L 286.122071 213.817865 
L 286.561684 215.805086 
L 286.605645 215.771775 
L 286.649607 216.784085 
L 286.737529 216.768581 
L 286.781491 215.154383 
L 286.825452 215.265401 
L 286.869413 293.150133 
L 286.913375 213.413106 
L 287.616756 212.979863 
L 287.660718 213.001744 
L 287.704679 211.826387 
L 287.792602 211.905423 
L 287.836563 211.935394 
L 287.880524 212.846694 
L 287.924486 212.820879 
L 287.968447 212.052644 
L 288.012408 212.09572 
L 288.05637 212.770595 
L 288.100331 212.760335 
L 288.144292 212.234671 
L 288.232215 212.336979 
L 288.364099 212.437245 
L 288.408061 212.713815 
L 288.452022 212.701032 
L 288.495983 212.365795 
L 288.539945 212.414074 
L 288.627867 212.255756 
L 288.671829 212.700107 
L 288.71579 212.709733 
L 288.759751 212.518011 
L 288.803713 212.556646 
L 288.847674 212.721912 
L 288.891635 212.623958 
L 288.979558 212.610883 
L 289.111442 212.692692 
L 293.243809 211.887469 
L 293.375693 211.864212 
L 293.94719 211.753308 
L 294.210958 211.708146 
L 294.826417 211.599615 
L 294.870379 214.332696 
L 294.958301 214.30145 
L 295.002263 214.293698 
L 295.090185 211.378661 
L 295.134147 211.867643 
L 295.222069 211.264091 
L 295.266031 214.247184 
L 295.309992 214.222054 
L 295.353953 211.213802 
L 295.441876 211.722911 
L 295.485837 211.687751 
L 295.617721 210.900165 
L 295.661683 211.547108 
L 295.705644 210.883113 
L 295.749605 211.467651 
L 295.793567 210.789021 
L 295.837528 211.494839 
L 295.969412 211.382315 
L 298.123518 210.934251 
L 298.255402 210.904275 
L 299.398397 210.673202 
L 300.101779 210.508724 
L 300.45347 210.406584 
L 302.475692 209.984843 
L 302.519653 209.150159 
L 302.563614 209.968106 
L 302.915305 209.88881 
L 303.530764 209.808465 
L 303.574725 54.755769 
L 303.618687 213.168451 
L 307.223517 212.426697 
L 307.882937 212.220036 
L 309.421584 211.904197 
L 309.465546 210.79332 
L 309.509507 211.890611 
L 309.94912 211.792701 
L 309.993082 210.72639 
L 310.037043 211.777196 
L 310.476657 211.718143 
L 310.564579 210.626432 
L 310.608541 211.715404 
L 310.696463 211.699296 
L 310.872309 211.648372 
L 310.91627 210.766461 
L 310.960231 211.632868 
L 311.136077 211.601858 
L 311.180038 210.737759 
L 311.224 210.796181 
L 311.267961 211.580519 
L 311.311922 211.572767 
L 311.399845 210.812918 
L 311.531729 214.254452 
L 311.707574 214.17356 
L 311.839458 213.739178 
L 311.971342 213.68399 
L 312.015304 214.104779 
L 312.147188 212.428742 
L 312.586801 212.047531 
L 313.50999 211.352426 
L 313.553951 211.462634 
L 313.729796 211.085263 
L 314.037526 210.98376 
L 314.257332 210.985517 
L 314.565062 210.931252 
L 314.609023 210.165693 
L 314.652985 210.921387 
L 314.740907 210.905883 
L 314.784869 210.493155 
L 314.82883 210.894188 
L 314.872791 210.912686 
L 315.004675 210.172482 
L 315.048637 210.851618 
L 315.136559 210.839923 
L 315.268443 210.793691 
L 315.312405 210.039505 
L 315.356366 210.791714 
L 315.444289 210.776209 
L 315.576173 209.989507 
L 315.620134 210.75084 
L 315.708057 210.735336 
L 315.79598 210.719832 
L 315.839941 210.355192 
L 315.883902 210.704327 
L 316.103709 210.695626 
L 316.14767 210.011487 
L 316.191632 210.699937 
L 316.323516 210.373464 
L 316.367477 210.677064 
L 316.4554 210.66156 
L 316.587284 210.384763 
L 316.719168 210.631013 
L 316.807091 210.60699 
L 316.851052 210.349324 
L 316.895013 210.385465 
L 316.938975 210.601765 
L 317.026897 210.56823 
L 317.554433 210.294549 
L 317.598395 210.503587 
L 317.642356 210.486798 
L 317.686317 210.231924 
L 317.730279 210.463223 
L 317.994047 210.433817 
L 318.038008 210.229044 
L 318.08197 210.409277 
L 318.125931 210.401525 
L 318.169892 210.209134 
L 318.213854 210.358922 
L 318.389699 210.320466 
L 318.477622 209.791959 
L 318.609506 210.270317 
L 318.873274 210.207242 
L 318.917235 209.674668 
L 318.961197 210.174953 
L 319.137042 210.13067 
L 319.356849 209.568759 
L 319.40081 210.084157 
L 319.488733 209.857518 
L 319.576655 210.056958 
L 319.620617 210.045396 
L 319.664578 210.037644 
L 319.708539 209.521544 
L 319.752501 210.02214 
L 319.796462 210.014388 
L 319.840423 209.508064 
L 319.884385 209.998884 
L 319.928346 209.991132 
L 320.06023 209.776657 
L 320.104192 54.915179 
L 320.148153 213.292477 
L 320.895496 212.723364 
L 321.02738 211.660842 
L 321.071341 212.638981 
L 321.159264 212.601873 
L 321.203225 212.581487 
L 321.247187 211.897498 
L 321.291148 212.115071 
L 321.335109 212.514527 
L 321.379071 212.490273 
L 321.423032 212.115092 
L 321.466993 212.132683 
L 321.510955 212.469862 
L 321.554916 212.174532 
L 321.642839 212.159027 
L 321.6868 212.445963 
L 321.730761 212.420059 
L 321.862645 211.614213 
L 321.994529 212.434737 
L 322.917718 212.432881 
L 322.961679 212.046692 
L 323.00564 212.417376 
L 323.093563 212.39505 
L 323.137524 212.017543 
L 323.181486 212.379545 
L 327.22593 211.60502 
L 327.269891 211.401097 
L 327.313852 211.59441 
L 327.401775 211.558983 
L 327.489698 214.284311 
L 327.533659 214.276559 
L 327.929311 214.179556 
L 328.061195 212.93206 
L 328.105157 214.169052 
L 328.193079 214.133042 
L 328.54477 214.050531 
L 328.588731 212.763723 
L 328.632693 214.035026 
L 328.8525 213.996265 
L 329.028345 213.98575 
L 329.160229 211.986872 
L 329.292113 211.890527 
L 329.467958 211.603821 
L 329.687765 211.409746 
L 329.863611 211.08189 
L 330.083417 210.997449 
L 331.534142 210.8502 
L 331.578103 210.717799 
L 331.622064 210.85107 
L 331.885832 210.824933 
L 332.237523 210.783317 
L 332.281485 210.630183 
L 332.325446 210.767813 
L 333.42448 210.572304 
L 333.468441 210.433157 
L 333.512402 210.5568 
L 333.820132 210.371609 
L 333.952016 210.480984 
L 333.995977 210.3307 
L 334.039938 210.46548 
L 336.765542 210.01795 
L 336.809503 54.965254 
L 336.853465 212.933373 
L 336.897426 212.925621 
L 336.941387 213.920384 
L 336.985349 213.005431 
L 337.02931 212.997679 
L 337.073271 213.930402 
L 337.161194 213.914897 
L 337.249117 213.906056 
L 337.381001 212.885699 
L 337.468923 212.870195 
L 337.512885 213.871159 
L 337.556846 212.861321 
L 337.600808 213.855655 
L 337.644769 212.845817 
L 337.68873 213.873351 
L 337.732692 212.925667 
L 337.820614 212.910163 
L 337.864576 213.875614 
L 338.480034 213.785113 
L 338.567957 213.736001 
L 338.65588 212.761667 
L 338.743803 213.71171 
L 338.787764 212.751259 
L 338.831725 213.696205 
L 339.051532 213.664164 
L 339.139455 212.526268 
L 339.183416 213.654352 
L 339.271339 213.591821 
L 339.710952 213.585752 
L 339.754914 212.564428 
L 339.798875 213.638923 
L 340.546218 213.56232 
L 340.590179 212.522698 
L 340.678102 212.692768 
L 340.722063 213.482877 
L 340.766024 212.685974 
L 340.809986 213.408854 
L 340.897909 213.35274 
L 340.94187 212.713804 
L 340.985831 213.337235 
L 341.073754 213.44466 
L 341.117715 212.71295 
L 341.161677 212.771045 
L 341.249599 212.715418 
L 341.293561 213.434022 
L 341.425445 213.483879 
L 341.645251 213.341504 
L 341.777135 213.39369 
L 341.90902 213.448509 
L 341.952981 213.440757 
L 341.996942 212.555228 
L 342.040904 213.494057 
L 342.172788 213.554134 
L 343.843319 213.841943 
L 343.88728 212.737466 
L 343.931241 213.922364 
L 344.107087 213.843881 
L 344.151048 212.772099 
L 344.19501 213.855502 
L 344.326894 213.854832 
L 344.370855 212.871872 
L 344.414816 213.867379 
L 344.5467 213.968204 
L 344.678584 214.061384 
L 344.986314 214.026062 
L 345.118198 213.936264 
L 345.250082 213.954654 
L 345.294043 213.038264 
L 345.338005 213.967203 
L 345.381966 214.08184 
L 345.425927 213.161569 
L 345.469889 214.078806 
L 346.041386 214.205078 
L 346.744768 214.675658 
L 347.14042 215.193981 
L 347.184381 215.145275 
L 347.228342 215.26054 
L 347.404188 215.494648 
L 347.448149 215.524797 
L 347.536072 216.961657 
L 347.580033 216.745506 
L 347.711917 216.930648 
L 347.755879 216.922896 
L 347.79984 215.228757 
L 347.887763 215.962929 
L 347.931724 216.891887 
L 348.019647 215.189996 
L 348.063608 215.301013 
L 348.107569 215.412031 
L 348.151531 293.004409 
L 348.195492 213.037978 
L 348.503222 212.929951 
L 349.074719 212.926044 
L 349.206603 212.962378 
L 349.250564 211.94753 
L 349.294526 212.946873 
L 349.382448 212.96693 
L 349.42641 212.06484 
L 349.470371 212.992352 
L 349.690178 213.117619 
L 349.734139 212.412594 
L 349.778101 213.170535 
L 349.822062 213.197002 
L 349.909985 212.859755 
L 350.041869 213.26548 
L 350.437521 213.3802 
L 352.415781 212.977531 
L 352.459743 212.612891 
L 352.503704 212.962026 
L 352.987279 212.890439 
L 353.03124 212.650758 
L 353.075202 212.881778 
L 353.251047 212.810526 
L 353.295008 212.802774 
L 353.426892 211.74884 
L 353.602738 211.724665 
L 353.646699 212.705724 
L 353.69066 212.697972 
L 353.778583 211.651751 
L 353.822544 212.632631 
L 353.910467 212.617127 
L 354.789694 212.489858 
L 354.921578 212.329026 
L 355.141385 212.234167 
L 355.185346 212.397721 
L 355.229308 212.210972 
L 355.449114 212.18529 
L 355.580998 212.34379 
L 355.97665 212.301515 
L 356.020612 215.160182 
L 356.064573 212.421983 
L 356.152496 212.420809 
L 356.240419 215.150631 
L 356.28438 215.142879 
L 356.723993 215.240229 
L 356.855877 215.340237 
L 357.295491 215.37761 
L 357.339452 215.266662 
L 357.383414 215.390353 
L 357.471336 215.40323 
L 357.515298 212.540514 
L 357.60322 212.697359 
L 357.647182 212.702008 
L 357.866988 213.183794 
L 357.91095 213.203524 
L 357.954911 213.077961 
L 357.998872 213.259911 
L 358.042834 213.276956 
L 358.086795 213.43701 
L 358.130756 213.306678 
L 358.174718 213.325795 
L 358.306602 213.573575 
L 358.350563 213.579567 
L 358.482447 213.766872 
L 358.614331 213.707728 
L 358.746215 213.739162 
L 358.790177 213.550522 
L 358.834138 213.572294 
L 358.922061 214.15252 
L 358.966022 213.819625 
L 359.009983 213.803126 
L 359.097906 214.473127 
L 359.141867 213.813191 
L 359.185829 214.552815 
L 359.22979 214.574716 
L 359.273751 213.66392 
L 359.317713 214.654402 
L 359.361674 214.690022 
L 359.405636 214.561959 
L 359.53752 215.333978 
L 359.581481 292.85555 
L 359.625442 213.660713 
L 360.152978 213.534955 
L 362.351046 213.12153 
L 362.395007 211.984942 
L 362.438968 213.106025 
L 362.48293 213.059797 
L 362.570852 213.082768 
L 362.614814 211.959058 
L 362.658775 213.067264 
L 362.746698 213.051759 
L 362.922543 213.027192 
L 364.724958 212.651678 
L 364.76892 211.775717 
L 364.856842 211.81166 
L 364.900804 211.803908 
L 364.988727 212.595542 
L 365.032688 211.8357 
L 365.076649 212.580038 
L 365.252495 212.509938 
L 365.296456 211.437294 
L 365.340417 212.494434 
L 365.560224 212.462169 
L 365.692108 211.723265 
L 365.736069 212.476839 
L 365.823992 212.469914 
L 366.08776 212.421373 
L 366.175683 212.511419 
L 366.219644 211.717334 
L 366.307567 212.495496 
L 366.439451 211.657721 
L 366.483412 212.471059 
L 366.527374 212.463307 
L 366.571335 211.64687 
L 366.615296 212.401905 
L 366.835103 212.376042 
L 366.879064 211.570427 
L 366.923026 212.360537 
L 367.098871 212.271015 
L 367.142833 211.578054 
L 367.186794 212.268779 
L 367.450562 212.2139 
L 367.494523 211.207082 
L 367.538485 212.141932 
L 367.670369 212.118675 
L 367.71433 211.225414 
L 367.802253 211.596366 
L 367.846214 211.267359 
L 368.022059 214.799151 
L 368.109982 214.783646 
L 369.252977 214.53442 
L 369.428823 214.430914 
L 370.791624 214.359839 
L 370.835586 211.636321 
L 370.879547 211.644736 
L 370.923508 214.352514 
L 370.96747 211.629232 
L 371.538967 211.63894 
L 371.758774 211.619087 
L 371.802735 211.743416 
L 371.890658 214.479095 
L 371.934619 290.869831 
L 371.978581 212.939707 
L 372.198387 213.01033 
L 372.242349 212.252328 
L 372.28631 212.329633 
L 372.330271 213.021334 
L 372.374233 212.458726 
L 372.418194 212.378256 
L 372.462155 212.443222 
L 372.506117 213.063413 
L 372.59404 212.053944 
L 372.638001 212.061667 
L 372.769885 213.16917 
L 372.857808 213.160504 
L 372.901769 212.88359 
L 372.94573 213.179195 
L 373.209498 213.10688 
L 373.25346 212.080893 
L 373.297421 213.091375 
L 373.649112 213.036182 
L 373.693073 212.004012 
L 373.737035 213.027503 
L 376.902251 212.521269 
L 376.946213 211.680729 
L 376.990174 212.457806 
L 377.649594 212.375778 
L 377.693556 215.108859 
L 377.781478 215.100545 
L 378.045247 214.945542 
L 378.221092 214.853014 
L 379.495971 214.77522 
L 380.463121 214.615771 
L 381.254425 214.751551 
L 381.342348 214.549634 
L 381.386309 214.568424 
L 381.650077 214.64954 
L 382.045729 214.764823 
L 382.08969 214.481079 
L 382.133652 214.793188 
L 382.177613 212.081829 
L 382.221574 215.185232 
L 382.265536 212.49188 
L 382.309497 212.540214 
L 382.353458 215.276537 
L 382.39742 212.588737 
L 382.661188 212.932675 
L 382.793072 214.910692 
L 382.837033 214.78417 
L 382.880995 214.895187 
L 382.924956 215.006205 
L 382.968917 292.58031 
L 383.012879 213.550537 
L 386.090173 212.916744 
L 386.30998 212.807831 
L 387.145245 212.754571 
L 387.277129 212.731314 
L 387.804665 212.674914 
L 388.508047 212.629022 
L 388.639931 212.700609 
L 388.727854 212.797666 
L 388.991622 213.060989 
L 389.25539 213.153174 
L 389.431235 213.28286 
L 390.57423 213.627247 
L 390.706114 213.764636 
L 390.750076 213.773291 
L 390.794037 212.65805 
L 390.837998 213.777606 
L 390.88196 213.766682 
L 390.925921 212.609856 
L 390.969882 216.399597 
L 391.013844 216.398066 
L 391.057805 213.799942 
L 391.101766 216.552265 
L 391.189689 216.580677 
L 391.321573 216.472698 
L 391.893071 216.666141 
L 392.024955 216.889559 
L 392.068916 216.909691 
L 392.156839 216.799529 
L 392.2008 216.835204 
L 392.376646 216.967817 
L 392.420607 216.810489 
L 392.50853 216.893117 
L 392.552491 216.937502 
L 392.772298 217.529544 
L 393.036066 217.841092 
L 393.080027 219.43141 
L 393.16795 219.415905 
L 393.299834 219.392649 
L 393.343795 217.827395 
L 393.387757 219.377145 
L 393.783409 219.307376 
L 393.871331 216.358482 
L 393.915293 219.284119 
L 393.959254 216.54467 
L 394.047177 216.188126 
L 394.091138 216.521414 
L 394.179061 216.505909 
L 394.310945 215.630047 
L 394.354906 216.474901 
L 394.398867 216.467149 
L 394.442829 214.825542 
L 394.530752 215.047578 
L 394.574713 292.587422 
L 394.618674 213.0486 
L 394.706597 213.06541 
L 394.750558 212.432089 
L 394.838481 212.195903 
L 394.882442 213.134732 
L 394.926404 213.161201 
L 394.970365 212.210379 
L 395.014326 213.214151 
L 395.058288 213.206398 
L 395.102249 212.856917 
L 395.14621 213.266208 
L 395.322056 213.276284 
L 397.73993 212.828993 
L 397.827853 212.54867 
L 397.871814 212.646436 
L 397.959737 212.79699 
L 398.003698 212.62621 
L 398.047659 212.781485 
L 398.135582 212.772832 
L 398.179543 212.605058 
L 398.223505 212.757786 
L 398.487273 212.759209 
L 398.487273 212.759209 
" clip-path="url(#p9417cda4d3)" style="fill: none; stroke: #1f77b4; stroke-width: 1.5; stroke-linecap: square"/>
   </g>
   <g id="patch_3">
    <path d="M 57.6 307.584 
L 57.6 41.472 
" style="fill: none; stroke: #000000; stroke-width: 0.8; stroke-linejoin: miter; stroke-linecap: square"/>
   </g>
   <g id="patch_4">
    <path d="M 414.72 307.584 
L 414.72 41.472 
" style="fill: none; stroke: #000000; stroke-width: 0.8; stroke-linejoin: miter; stroke-linecap: square"/>
   </g>
   <g id="patch_5">
    <path d="M 57.6 307.584 
L 414.72 307.584 
" style="fill: none; stroke: #000000; stroke-width: 0.8; stroke-linejoin: miter; stroke-linecap: square"/>
   </g>
   <g id="patch_6">
    <path d="M 57.6 41.472 
L 414.72 41.472 
" style="fill: none; stroke: #000000; stroke-width: 0.8; stroke-linejoin: miter; stroke-linecap: square"/>
   </g>
  </g>
 </g>
 <defs>
  <clipPath id="p9417cda4d3">
   <rect x="57.6" y="41.472" width="357.12" height="266.112"/>
  </clipPath>
 </defs>
</svg>
